<svg id="Layer_1" data-name="Layer 1" xmlns="http://www.w3.org/2000/svg" viewBox="0 0 25 25"><defs><style>.cls-1{fill:#efefef;}</style></defs><path class="cls-1" d="M20.5,21H4.5a.5.5,0,0,1-.5-.5V4.5a.5.5,0,0,1,1,0V20H20.5a.5.5,0,0,1,0,1Z"/><path class="cls-1" d="M8.5,17a.5.5,0,0,1-.5-.5v-4a.5.5,0,0,1,1,0v4A.5.5,0,0,1,8.5,17Z"/><path class="cls-1" d="M11.5,17a.5.5,0,0,1-.5-.5v-6a.5.5,0,0,1,1,0v6A.5.5,0,0,1,11.5,17Z"/><path class="cls-1" d="M14.5,17a.5.5,0,0,1-.5-.5v-8a.5.5,0,0,1,1,0v8A.5.5,0,0,1,14.5,17Z"/><path class="cls-1" d="M17.5,17a.5.5,0,0,1-.5-.5V6.5a.5.5,0,0,1,1,0v10A.5.5,0,0,1,17.5,17Z"/></svg>