<svg id="Layer_1" data-name="Layer 1" xmlns="http://www.w3.org/2000/svg" viewBox="0 0 25 25"><defs><style>.cls-1{fill:#fff;}</style></defs><path class="cls-1" d="M17,12.5a.5.5,0,0,0-.5-.5H8.707l3.121-3.122a.5.5,0,0,0-.707-.707L7.147,12.146a.518.518,0,0,0-.109.163.505.505,0,0,0,0,.382.518.518,0,0,0,.109.163l3.974,3.975a.5.5,0,0,0,.707-.707L8.707,13H16.5A.5.5,0,0,0,17,12.5Z"/><path class="cls-1" d="M18.511,18.51a8.5,8.5,0,1,1,0-12.02.5.5,0,0,0,.707-.707A9.5,9.5,0,1,0,5.782,19.217a9.5,9.5,0,0,0,13.436,0,.5.5,0,0,0-.707-.707Z"/><path class="cls-1" d="M20.5,12a.75.75,0,1,1,.75-.75h1A1.746,1.746,0,0,0,21,9.582V9H20v.582A1.745,1.745,0,0,0,20.5,13a.75.75,0,1,1-.75.75h-1A1.746,1.746,0,0,0,20,15.418V16h1v-.582A1.745,1.745,0,0,0,20.5,12Z"/></svg>