<svg id="Layer_1" data-name="Layer 1" xmlns="http://www.w3.org/2000/svg" viewBox="0 0 25 25"><defs><style>.cls-1{fill:#878787;}</style></defs><path class="cls-1" d="M8,12.5a.5.5,0,0,0,.5.5h7.793l-3.121,3.122a.5.5,0,0,0,.707.707l3.974-3.975a.518.518,0,0,0,.109-.163.505.505,0,0,0,0-.382.518.518,0,0,0-.109-.163L13.879,8.171a.5.5,0,0,0-.707.707L16.293,12H8.5A.5.5,0,0,0,8,12.5Z"/><path class="cls-1" d="M19.218,5.783a9.5,9.5,0,0,0-13.436,0,.5.5,0,0,0,.707.707,8.5,8.5,0,1,1,0,12.02.5.5,0,0,0-.707.707A9.5,9.5,0,0,0,19.218,5.783Z"/><path class="cls-1" d="M6.25,13.75A1.752,1.752,0,0,0,4.5,12a.75.75,0,1,1,.75-.75h1A1.746,1.746,0,0,0,5,9.582V9H4v.582A1.745,1.745,0,0,0,4.5,13a.75.75,0,1,1-.75.75h-1A1.746,1.746,0,0,0,4,15.418V16H5v-.582A1.746,1.746,0,0,0,6.25,13.75Z"/></svg>