<svg id="Layer_1" data-name="Layer 1" xmlns="http://www.w3.org/2000/svg" viewBox="0 0 25 25"><defs><style>.cls-1{fill:#fff;}</style></defs><path class="cls-1" d="M19.8,5.2A7.511,7.511,0,0,0,9.2,5.2a7.409,7.409,0,0,0-2.177,5.082C4.536,10.755,3,11.777,3,13v6c0,1.949,3.606,3,7,3s7-1.051,7-3V17.557A7.475,7.475,0,0,0,19.8,5.2ZM7.052,11.289a7.439,7.439,0,0,0,1.41,3.634C5.785,14.666,4,13.773,4,13,4,12.447,5.073,11.7,7.052,11.289ZM4,14.594a10.775,10.775,0,0,0,5.4,1.39,7.453,7.453,0,0,0,3.282,1.782A15.123,15.123,0,0,1,10,18c-3.718,0-6-1.165-6-2ZM10,21c-3.718,0-6-1.165-6-2V17.6A11.418,11.418,0,0,0,10,19a12.4,12.4,0,0,0,5.45-1.073c.191-.024.366-.073.55-.11V19C16,19.835,13.719,21,10,21Zm6.359-4.271h0a6.55,6.55,0,0,1-6.41-1.593c-.009-.01-.022-.013-.032-.021A.214.214,0,0,0,9.9,15.1a6.5,6.5,0,1,1,6.457,1.633Z"/><path class="cls-1" d="M14.5,10a.75.75,0,1,1,.75-.75h1A1.746,1.746,0,0,0,15,7.582V7H14v.582A1.745,1.745,0,0,0,14.5,11a.75.75,0,1,1-.75.75h-1A1.746,1.746,0,0,0,14,13.418V14h1v-.582A1.745,1.745,0,0,0,14.5,10Z"/></svg>