<svg id="Layer_1" data-name="Layer 1" xmlns="http://www.w3.org/2000/svg" viewBox="0 0 25 25"><defs><style>.cls-1{fill:#878787;}</style></defs><path class="cls-1" d="M12.5,8A4.5,4.5,0,1,0,17,12.5,4.5,4.5,0,0,0,12.5,8Zm0,8A3.5,3.5,0,1,1,16,12.5,3.5,3.5,0,0,1,12.5,16Z"/><path class="cls-1" d="M21.184,10.53l-1.31-.655-.3-.771.465-1.352a1.467,1.467,0,0,0-.357-1.51l-.919-.92a1.476,1.476,0,0,0-1.511-.356l-1.389.463L15.1,5.1,14.47,3.816A1.465,1.465,0,0,0,13.151,3h-1.3a1.465,1.465,0,0,0-1.319.816l-.655,1.31-.771.3L7.752,4.966a1.473,1.473,0,0,0-1.509.356l-.921.92a1.47,1.47,0,0,0-.356,1.511l.463,1.389L5.1,9.9l-1.284.628A1.467,1.467,0,0,0,3,11.849v1.3a1.467,1.467,0,0,0,.816,1.319l1.31.655.3.771-.465,1.352a1.467,1.467,0,0,0,.357,1.51l.919.919a1.473,1.473,0,0,0,1.51.357l1.39-.463.76.329.628,1.284A1.467,1.467,0,0,0,11.849,22h1.3a1.467,1.467,0,0,0,1.319-.816l.655-1.31.771-.3,1.352.465a1.473,1.473,0,0,0,1.509-.356l.921-.921a1.468,1.468,0,0,0,.356-1.51l-.463-1.389.329-.76,1.284-.628A1.467,1.467,0,0,0,22,13.151v-1.3A1.467,1.467,0,0,0,21.184,10.53ZM21,13.151a.476.476,0,0,1-.263.425l-1.31.655a.946.946,0,0,0-.451.484l-.33.8a.941.941,0,0,0-.024.661l.463,1.39a.473.473,0,0,1-.115.486l-.92.92a.473.473,0,0,1-.336.14.458.458,0,0,1-.15-.025l-1.39-.463a.935.935,0,0,0-.661.024l-.8.33a.946.946,0,0,0-.484.451l-.655,1.31a.476.476,0,0,1-.425.263h-1.3a.476.476,0,0,1-.425-.263l-.655-1.31a.946.946,0,0,0-.484-.451l-.8-.33a.935.935,0,0,0-.661-.024l-1.39.463a.458.458,0,0,1-.15.025.473.473,0,0,1-.336-.14l-.92-.92a.473.473,0,0,1-.115-.486l.463-1.39a.941.941,0,0,0-.024-.661l-.33-.8a.946.946,0,0,0-.451-.484l-1.31-.655A.476.476,0,0,1,4,13.151v-1.3a.476.476,0,0,1,.263-.425l1.31-.655a.946.946,0,0,0,.451-.484l.33-.8a.941.941,0,0,0,.024-.661l-.463-1.39A.473.473,0,0,1,6.03,6.95l.92-.92a.473.473,0,0,1,.336-.14.458.458,0,0,1,.15.025l1.39.463a.95.95,0,0,0,.661-.024l.8-.33a.946.946,0,0,0,.484-.451l.655-1.31A.476.476,0,0,1,11.849,4h1.3a.476.476,0,0,1,.425.263l.655,1.31a.946.946,0,0,0,.484.451l.8.33a.95.95,0,0,0,.661.024l1.39-.463a.458.458,0,0,1,.15-.025.473.473,0,0,1,.336.14l.92.92a.473.473,0,0,1,.115.486l-.463,1.39a.941.941,0,0,0,.024.661l.33.8a.946.946,0,0,0,.451.484l1.31.655a.476.476,0,0,1,.263.425Z"/></svg>