<svg id="Layer_1" data-name="Layer 1" xmlns="http://www.w3.org/2000/svg" viewBox="0 0 25 25"><defs><style>.cls-1{fill:#efefef;}</style></defs><path class="cls-1" d="M12.5,22A9.5,9.5,0,0,1,5.782,5.783,9.5,9.5,0,0,1,19.218,19.217,9.435,9.435,0,0,1,12.5,22Zm0-18a8.5,8.5,0,1,0,6.011,2.49h0A8.444,8.444,0,0,0,12.5,4Z"/><path class="cls-1" d="M13,15H12a4.445,4.445,0,0,1,1.551-3.314,2.449,2.449,0,0,0,.949-1.677,2,2,0,0,0-4,0h-1a3,3,0,0,1,6,0,3.318,3.318,0,0,1-1.227,2.368A3.469,3.469,0,0,0,13,15Z"/><circle class="cls-1" cx="12.5" cy="17" r="1"/></svg>